<svg xmlns="http://www.w3.org/2000/svg" width="900" height="300" viewBox="0 0 900 300">
  <rect width="900" height="300" rx="28" fill="#07070A"/>
  <g transform="translate(16 16) scale(0.52)"><mask id="ring-l"><rect width="512" height="512" fill="#000"/><polygon points="256.0,6.0 39.5,131.0 39.5,381.0 256.0,506.0 472.5,381.0 472.5,131.0" fill="#fff" stroke="#fff" stroke-width="26" stroke-linejoin="round"/><polygon points="256.0,21.0 52.5,138.5 52.5,373.5 256.0,491.0 459.5,373.5 459.5,138.5" fill="#000" stroke="#000" stroke-width="26" stroke-linejoin="round"/></mask>
  <rect width="512" height="512" fill="#FFFFFF" mask="url(#ring-l)"/>
  <polygon points="256.0,29.0 59.4,142.5 59.4,369.5 256.0,483.0 452.6,369.5 452.6,142.5" fill="#0A0A0A" stroke="#0A0A0A" stroke-width="26" stroke-linejoin="round"/>
  <g transform="translate(83.20 94.00) scale(5.4)"><defs><mask id="bh-l"><rect width="64" height="64" fill="#fff"/><circle cx="32" cy="28" r="5.3" fill="#000"/></mask></defs>
    <g mask="url(#bh-l)"><g fill="#FFC000" transform="translate(32 28)">
      <ellipse cx="0" cy="-13" rx="7.6" ry="11.5"/>
      <ellipse cx="0" cy="-13" rx="7.6" ry="11.5" transform="rotate(72)"/>
      <ellipse cx="0" cy="-13" rx="7.6" ry="11.5" transform="rotate(144)"/>
      <ellipse cx="0" cy="-13" rx="7.6" ry="11.5" transform="rotate(216)"/>
      <ellipse cx="0" cy="-13" rx="7.6" ry="11.5" transform="rotate(288)"/>
    </g>
    <path d="M32 28 C 32 39, 33 47, 35.5 54" stroke="#FFC000" stroke-width="2.6" fill="none" stroke-linecap="round"/>
    <circle cx="35.6" cy="54.2" r="2.5" fill="#FFC000"/>
    <circle cx="31" cy="49.5" r="1.9" fill="#FFC000"/>
    <circle cx="38.4" cy="50.4" r="1.9" fill="#FFC000"/></g>
    <circle cx="32" cy="28" r="2.4" fill="#FFC000"/></g></g>
  <text x="300" y="182" font-family="Montserrat, 'Segoe UI', Arial, sans-serif" font-size="90" font-weight="800" fill="#F4F4F8">NegaraKu<tspan fill="#FFC000">.md</tspan></text>
</svg>