<svg xmlns="http://www.w3.org/2000/svg" width="900" height="300" viewBox="0 0 900 300">
  <rect width="900" height="300" rx="28" fill="#07070A"/>
  <g transform="translate(16 16) scale(0.52)"><polygon points="256.00,23.50 54.65,139.75 54.65,372.25 256.00,488.50 457.35,372.25 457.35,139.75" fill="#0A0A0A" stroke="#0A0A0A" stroke-width="34" stroke-linejoin="round"/>
  <polygon points="256.00,6.50 39.93,131.25 39.93,380.75 256.00,505.50 472.07,380.75 472.07,131.25" fill="none" stroke="#FFFFFF" stroke-width="11" stroke-linejoin="round" stroke-linecap="round"/>
  <g transform="translate(73.60 85.00) scale(5.7)"><defs><mask id="bh"><rect width="64" height="64" fill="#fff"/><circle cx="32" cy="28" r="5.3" fill="#000"/></mask></defs>
    <g mask="url(#bh)"><g fill="#FF2020" transform="translate(32 28)">
      <ellipse cx="0" cy="-13" rx="7.6" ry="11.5"/>
      <ellipse cx="0" cy="-13" rx="7.6" ry="11.5" transform="rotate(72)"/>
      <ellipse cx="0" cy="-13" rx="7.6" ry="11.5" transform="rotate(144)"/>
      <ellipse cx="0" cy="-13" rx="7.6" ry="11.5" transform="rotate(216)"/>
      <ellipse cx="0" cy="-13" rx="7.6" ry="11.5" transform="rotate(288)"/>
    </g>
    <path d="M32 28 C 32 39, 33 47, 35.5 54" stroke="#FF2020" stroke-width="2.6" fill="none" stroke-linecap="round"/>
    <circle cx="35.6" cy="54.2" r="2.5" fill="#FF2020"/>
    <circle cx="31" cy="49.5" r="1.9" fill="#FF2020"/>
    <circle cx="38.4" cy="50.4" r="1.9" fill="#FF2020"/></g>
    <circle cx="32" cy="28" r="2.4" fill="#FF2020"/></g></g>
  <text x="300" y="182" font-family="Montserrat, 'Segoe UI', Arial, sans-serif" font-size="90" font-weight="800" fill="#F4F4F8">NegaraKu<tspan fill="#FF2020">.md</tspan></text>
</svg>